<svg width="29" height="29" viewBox="0 0 29 29" fill="none" xmlns="http://www.w3.org/2000/svg">
<path d="M17.2181 23.5617V18.1241C17.2181 17.8837 17.1226 17.6532 16.9527 17.4832C16.7827 17.3133 16.5522 17.2178 16.3118 17.2178H12.6868C12.4465 17.2178 12.216 17.3133 12.046 17.4832C11.8761 17.6532 11.7806 17.8837 11.7806 18.1241V23.5617C11.7806 23.802 11.6851 24.0325 11.5152 24.2025C11.3453 24.3724 11.1148 24.4679 10.8744 24.4679L5.43761 24.4686C5.31859 24.4687 5.20074 24.4452 5.09077 24.3997C4.98081 24.3542 4.88089 24.2874 4.79672 24.2032C4.71256 24.1191 4.6458 24.0192 4.60024 23.9092C4.55469 23.7993 4.53125 23.6814 4.53125 23.5624V13.0884C4.53125 12.9621 4.55763 12.8372 4.60871 12.7218C4.65978 12.6063 4.73442 12.5028 4.82783 12.4178L13.8897 4.17836C14.0565 4.02668 14.2739 3.94263 14.4993 3.94263C14.7248 3.94262 14.9422 4.02665 15.109 4.17832L24.1721 12.4178C24.2656 12.5028 24.3402 12.6063 24.3913 12.7218C24.4424 12.8373 24.4688 12.9621 24.4688 13.0884V23.5624C24.4688 23.6814 24.4453 23.7993 24.3998 23.9092C24.3542 24.0192 24.2874 24.1191 24.2033 24.2033C24.1191 24.2874 24.0192 24.3542 23.9092 24.3997C23.7993 24.4452 23.6814 24.4687 23.5624 24.4686L18.1242 24.4679C17.8839 24.4679 17.6534 24.3724 17.4835 24.2025C17.3135 24.0325 17.2181 23.802 17.2181 23.5617V23.5617Z" stroke="white" stroke-width="2.5" stroke-linecap="round" stroke-linejoin="round"/>
</svg>
