<svg width="151" height="38" viewBox="0 0 151 38" fill="none" xmlns="http://www.w3.org/2000/svg">
<g clip-path="url(#clip0_256_366)">
<path d="M23.4422 8.79167C25.1089 8.79167 26.6413 9.43981 28.0394 10.7361C29.2339 11.912 29.8311 12.912 29.8311 13.7361C29.8311 14.4676 29.4931 15.0741 28.8172 15.5556C28.4376 15.787 28.0441 15.9028 27.6367 15.9028C26.7848 15.9028 26.095 15.4352 25.5672 14.5C24.9098 13.6019 24.1876 13.1528 23.4005 13.1528C22.8265 13.1528 22.1783 13.3657 21.4561 13.7917C21.0857 14.088 20.8033 14.3981 20.6089 14.7222C19.9607 15.8519 19.6367 17.213 19.6367 18.8056C19.6367 20.6574 20.0718 22.1852 20.9422 23.3889C21.257 23.8611 21.8357 24.2083 22.6783 24.4306C23.2154 24.5694 23.6783 24.6389 24.0672 24.6389C24.8357 24.6389 25.3589 24.3796 25.6367 23.8611C26.1089 23.3148 26.683 23.0417 27.3589 23.0417C28.0904 23.0417 28.6968 23.3796 29.1783 24.0556C29.4098 24.4352 29.5255 24.8287 29.5255 25.2361C29.5255 26.1343 28.8913 27.0463 27.6228 27.9722C26.5672 28.6574 25.3867 29 24.0811 29C22.5904 29 21.0857 28.625 19.5672 27.875C18.0209 26.9954 16.8404 25.4769 16.0255 23.3194C15.5255 21.8472 15.2755 20.3843 15.2755 18.9306V18.6667C15.2755 16.0185 15.9746 13.7176 17.3728 11.7639C18.1505 10.8565 18.7524 10.3009 19.1783 10.0972C20.5857 9.22685 22.007 8.79167 23.4422 8.79167ZM33.1961 8.77778H33.3072C34.0572 8.77778 34.6776 9.15741 35.1683 9.91667C35.335 10.2685 35.423 10.5694 35.4322 10.8194C35.4322 11.1343 35.4554 12.2731 35.5017 14.2361H35.5155C36.3396 13.8194 37.1081 13.6111 37.8211 13.6111H38.4322C39.4415 13.6111 40.497 14.0231 41.5989 14.8472C43.96 16.9028 45.1405 20.8611 45.1405 26.7222C45.1405 27.7685 44.622 28.5 43.585 28.9167C43.3628 28.9722 43.173 29 43.0155 29H42.8767C42.0804 29 41.4461 28.5833 40.9739 27.75C40.8443 27.4444 40.7794 27.1528 40.7794 26.875C40.7794 23.2269 40.2933 20.5509 39.3211 18.8472C38.9693 18.2639 38.5618 17.9722 38.0989 17.9722H38.085C37.6868 17.9722 37.3581 18.2269 37.0989 18.7361C36.8581 19.1435 36.6544 19.6204 36.4878 20.1667C35.9878 21.8796 35.7378 23.9861 35.7378 26.4861V26.7917C35.7378 27.5972 35.3118 28.2407 34.46 28.7222C34.1452 28.8333 33.872 28.8889 33.6405 28.8889H33.5017C32.8072 28.8889 32.2239 28.5602 31.7517 27.9028C31.5109 27.4954 31.3905 27.1204 31.3905 26.7778L31.0711 10.8194C31.0711 10.2361 31.3859 9.68055 32.0155 9.15278C32.4137 8.90278 32.8072 8.77778 33.1961 8.77778ZM53.8389 12.8889C55.3852 12.8889 57.0194 13.2176 58.7417 13.875C59.5843 14.3472 60.0056 15.0231 60.0056 15.9028L59.9917 16.1111C60.362 16.5 60.5472 17.1389 60.5472 18.0278C60.5657 18.0278 60.575 18.3287 60.575 18.9306C60.575 19.5231 60.5704 20.125 60.5611 20.7361C60.6352 24.2269 60.6722 26.2037 60.6722 26.6667C60.6722 27.3056 60.3713 27.875 59.7694 28.375C59.362 28.6528 58.9315 28.7917 58.4778 28.7917C57.8574 28.7917 57.3065 28.537 56.825 28.0278L56.7972 28.0139C55.4731 28.6713 54.2093 29 53.0056 29H52.6306C51.1861 29 49.8481 28.537 48.6167 27.6111C46.95 26.2037 46.1167 24.213 46.1167 21.6389C46.1167 18.6852 46.95 16.3935 48.6167 14.7639C50.0056 13.5139 51.7463 12.8889 53.8389 12.8889ZM50.4778 21.5972C50.4778 23.0694 50.8667 24.0046 51.6444 24.4028C51.9593 24.5602 52.3435 24.6389 52.7972 24.6389H52.825C53.7509 24.6389 54.5611 24.3657 55.2556 23.8194C55.4037 23.662 55.5565 23.3843 55.7139 22.9861C56.0287 22.0046 56.1861 21.1157 56.1861 20.3194C56.1861 19.9398 56.1768 19.0324 56.1583 17.5972C55.3065 17.3657 54.5241 17.25 53.8111 17.25C52.3759 17.25 51.4315 17.7731 50.9778 18.8194C50.6444 19.6435 50.4778 20.5694 50.4778 21.5972ZM69.3844 13.6111H69.9956C70.8104 13.6111 71.6946 13.9028 72.6483 14.4861C72.9539 14.662 73.3567 15.0185 73.8567 15.5556C74.4215 16.1759 74.9168 17.0046 75.3428 18.0417C76.2502 20.3009 76.7039 23.1296 76.7039 26.5278C76.7039 27.5741 76.3243 28.3009 75.565 28.7083C75.2594 28.9028 74.9261 29 74.565 29H74.44C73.6344 29 72.9909 28.5694 72.5094 27.7083C72.3891 27.3843 72.3289 27.1204 72.3289 26.9167C72.3289 26.7315 72.3335 26.5648 72.3428 26.4167C72.3428 24.0463 72.0418 21.9213 71.44 20.0417C70.94 18.662 70.3474 17.9722 69.6622 17.9722H69.6483C69.2594 17.9722 68.9493 18.1991 68.7178 18.6528C68.5048 18.9306 68.2733 19.4676 68.0233 20.2639C67.5418 21.9954 67.3011 24.0139 67.3011 26.3194V26.7917C67.3011 27.5972 66.8752 28.2407 66.0233 28.7222C65.7085 28.8333 65.4354 28.8889 65.2039 28.8889H65.065C64.2872 28.8889 63.653 28.4815 63.1622 27.6667C63.0048 27.4074 62.9261 26.8519 62.9261 26C62.7317 19.7593 62.6344 16.3333 62.6344 15.7222C62.6344 15.0741 62.9724 14.5 63.6483 14C64.0094 13.7685 64.3798 13.6528 64.7594 13.6528H64.8706C65.5094 13.6528 66.0835 13.9537 66.5928 14.5556H66.6344C67.5233 13.9259 68.44 13.6111 69.3844 13.6111ZM84.9717 13.125C86.592 13.125 88.3467 13.537 90.2355 14.3611C90.4207 14.4259 90.6846 14.6574 91.0272 15.0556C91.2031 15.2963 91.3374 15.6111 91.43 16C91.68 16.2037 91.8698 16.5324 91.9994 16.9861C92.092 17.4954 92.1383 18.1435 92.1383 18.9306C92.1383 19.4306 92.1337 20.0278 92.1244 20.7222C92.1985 24.2037 92.2355 26.3426 92.2355 27.1389C92.2355 29.2593 91.6939 31.037 90.6105 32.4722C89.9624 33.1759 89.5087 33.588 89.2494 33.7083C88.2124 34.3657 87.0781 34.6944 85.8467 34.6944H85.6383C84.7031 34.6944 83.8281 34.5324 83.0133 34.2083C82.2263 33.7361 81.8328 33.088 81.8328 32.2639C81.8328 31.4398 82.2355 30.7917 83.0411 30.3194C83.3744 30.1713 83.7078 30.0972 84.0411 30.0972C84.143 30.0972 84.5689 30.1713 85.3189 30.3194C85.5133 30.3287 85.6661 30.3333 85.7772 30.3333C86.7957 30.3333 87.4207 29.8194 87.6522 28.7917C87.717 28.6065 87.7494 28.4444 87.7494 28.3056H87.7355C86.5596 28.7593 85.5226 28.9861 84.6244 28.9861H84.0689C83.0041 28.9861 81.8976 28.662 80.7494 28.0139C78.7031 26.6435 77.68 24.5046 77.68 21.5972C77.68 19.1157 78.2818 17.0972 79.4855 15.5417C80.8189 13.9306 82.6476 13.125 84.9717 13.125ZM82.0411 21.6389C82.0411 23.6296 82.7865 24.625 84.2772 24.625H84.4578C85.3096 24.625 86.0967 24.3565 86.8189 23.8194C87.0504 23.5139 87.2494 23.088 87.4161 22.5417C87.6383 21.6343 87.7494 20.8889 87.7494 20.3056C87.7494 19.7222 87.7402 18.9676 87.7217 18.0417C86.7124 17.6713 85.7772 17.4861 84.9161 17.4861C83.6754 17.4861 82.8744 17.9537 82.5133 18.8889C82.1985 19.6759 82.0411 20.5926 82.0411 21.6389ZM103.67 8.79167C104.105 8.79167 104.559 8.97685 105.031 9.34722C105.513 9.81944 105.753 10.3611 105.753 10.9722C105.753 11.7963 105.351 12.4444 104.545 12.9167C104.332 13.0926 103.554 13.1806 102.212 13.1806L97.5589 13.2639L97.4756 16.9722H97.4894C99.1283 16.9537 100.351 16.9444 101.156 16.9444C102.008 16.9444 102.675 17.3565 103.156 18.1806C103.304 18.5231 103.378 18.8426 103.378 19.1389C103.378 19.8981 103.008 20.5231 102.267 21.0139C101.925 21.2083 101.54 21.3056 101.114 21.3056C100.337 21.3056 99.082 21.3102 97.3506 21.3194L97.3367 21.3889L97.2672 24.4167L97.2533 24.5417C101.337 24.3657 103.503 24.2778 103.753 24.2778C104.513 24.2778 105.133 24.6435 105.614 25.375C105.809 25.7269 105.906 26.088 105.906 26.4583C105.906 27.2269 105.531 27.8611 104.781 28.3611C104.485 28.5648 103.804 28.6667 102.739 28.6667C102.61 28.6759 100.017 28.787 94.9617 29C94.4432 29 93.9478 28.7778 93.4756 28.3333C93.0496 27.8796 92.8367 27.3704 92.8367 26.8056C93.1144 16.1574 93.2672 10.8333 93.295 10.8333C93.4061 10.3056 93.6006 9.90741 93.8783 9.63889C94.2672 9.27778 94.6052 9.07407 94.8922 9.02778C95.1607 8.93518 96.4478 8.88889 98.7533 8.88889C98.9015 8.87963 100.54 8.84722 103.67 8.79167ZM113.354 12.8889C114.901 12.8889 116.535 13.2176 118.257 13.875C119.1 14.3472 119.521 15.0231 119.521 15.9028L119.507 16.1111C119.878 16.5 120.063 17.1389 120.063 18.0278C120.081 18.0278 120.091 18.3287 120.091 18.9306C120.091 19.5231 120.086 20.125 120.077 20.7361C120.151 24.2269 120.188 26.2037 120.188 26.6667C120.188 27.3056 119.887 27.875 119.285 28.375C118.878 28.6528 118.447 28.7917 117.993 28.7917C117.373 28.7917 116.822 28.537 116.341 28.0278L116.313 28.0139C114.989 28.6713 113.725 29 112.521 29H112.146C110.702 29 109.364 28.537 108.132 27.6111C106.466 26.2037 105.632 24.213 105.632 21.6389C105.632 18.6852 106.466 16.3935 108.132 14.7639C109.521 13.5139 111.262 12.8889 113.354 12.8889ZM109.993 21.5972C109.993 23.0694 110.382 24.0046 111.16 24.4028C111.475 24.5602 111.859 24.6389 112.313 24.6389H112.341C113.266 24.6389 114.077 24.3657 114.771 23.8194C114.919 23.662 115.072 23.3843 115.229 22.9861C115.544 22.0046 115.702 21.1157 115.702 20.3194C115.702 19.9398 115.692 19.0324 115.674 17.5972C114.822 17.3657 114.04 17.25 113.327 17.25C111.891 17.25 110.947 17.7731 110.493 18.8194C110.16 19.6435 109.993 20.5694 109.993 21.5972ZM125.497 10.5972H125.608C126.423 10.5972 127.071 11.0324 127.553 11.9028C127.729 12.2917 127.817 13.1019 127.817 14.3333C127.826 14.3333 127.84 14.5046 127.858 14.8472L128.011 14.8611C129.77 14.8611 130.789 14.9167 131.067 15.0278C131.631 15.2593 132.044 15.6157 132.303 16.0972C132.46 16.4213 132.539 16.7361 132.539 17.0417V17.1528C132.539 17.9028 132.15 18.5278 131.372 19.0278C131.011 19.1944 130.719 19.2778 130.497 19.2778L127.886 19.2222V20.6528C127.886 21.1898 127.881 21.8519 127.872 22.6389C127.872 23.463 128.016 24.0741 128.303 24.4722C128.46 24.5833 128.673 24.6389 128.942 24.6389C129.599 24.6389 130.52 24.3611 131.706 23.8056C131.937 23.75 132.127 23.7222 132.275 23.7222H132.456C133.261 23.7222 133.905 24.1481 134.386 25C134.497 25.3148 134.553 25.588 134.553 25.8194V25.9444C134.553 26.6852 134.173 27.3102 133.414 27.8194C131.821 28.6065 130.321 29 128.914 29C127.081 29 125.65 28.2824 124.622 26.8472C123.881 25.6991 123.511 24.3796 123.511 22.8889C123.52 21.7037 123.525 20.7269 123.525 19.9583V19.125H123.317C122.641 19.125 122.057 18.8241 121.567 18.2222C121.289 17.8241 121.15 17.4167 121.15 17V16.8611C121.15 16.0556 121.581 15.412 122.442 14.9306C122.747 14.8194 123.016 14.7639 123.247 14.7639H123.483L123.372 12.6944C123.372 12.1019 123.669 11.5417 124.261 11.0139C124.687 10.7361 125.099 10.5972 125.497 10.5972Z" fill="white"/>
</g>
<defs>
<clipPath id="clip0_256_366">
<rect width="150.87" height="37.33" fill="white"/>
</clipPath>
</defs>
</svg>
