<svg width="29" height="29" viewBox="0 0 29 29" fill="none" xmlns="http://www.w3.org/2000/svg">
<path d="M10.875 12.2344H18.125" stroke="white" stroke-width="2.5" stroke-linecap="round" stroke-linejoin="round"/>
<path d="M10.875 16.7656H13.1406" stroke="white" stroke-width="2.5" stroke-linecap="round" stroke-linejoin="round"/>
<path d="M17.7496 24.4688H5.4375C5.19715 24.4688 4.96664 24.3733 4.79668 24.2033C4.62673 24.0334 4.53125 23.8029 4.53125 23.5625V5.4375C4.53125 5.19715 4.62673 4.96664 4.79668 4.79668C4.96664 4.62673 5.19715 4.53125 5.4375 4.53125H23.5625C23.8029 4.53125 24.0334 4.62673 24.2033 4.79668C24.3733 4.96664 24.4688 5.19715 24.4688 5.4375V17.7496C24.4688 17.8686 24.4453 17.9865 24.3998 18.0964C24.3542 18.2064 24.2875 18.3063 24.2033 18.3904L18.3904 24.2033C18.3063 24.2875 18.2064 24.3542 18.0964 24.3998C17.9865 24.4453 17.8686 24.4688 17.7496 24.4688V24.4688Z" stroke="white" stroke-width="2.5" stroke-linecap="round" stroke-linejoin="round"/>
<path d="M24.3868 17.6709H17.6719V24.3862" stroke="white" stroke-width="2.5" stroke-linecap="round" stroke-linejoin="round"/>
</svg>
