<svg width="29" height="29" viewBox="0 0 29 29" fill="none" xmlns="http://www.w3.org/2000/svg">
<path d="M9.96875 26.2812H19.0312" stroke="white" stroke-width="2.5" stroke-linecap="round" stroke-linejoin="round"/>
<path d="M18.4771 10.875C18.3058 10.1261 17.9268 9.44079 17.3837 8.89762C16.8405 8.35445 16.1551 7.97548 15.4063 7.80424M9.05874 19.0291C7.94032 18.1907 7.03133 17.1046 6.40308 15.856C5.77482 14.6074 5.44437 13.2302 5.43764 11.8324C5.4105 6.92031 9.37062 2.83696 14.2815 2.72137C16.2036 2.67512 18.0906 3.24132 19.6697 4.33813C21.2488 5.43494 22.4381 7.00551 23.0659 8.8228C23.6936 10.6401 23.7271 12.6099 23.1616 14.4475C22.5961 16.2851 21.4608 17.8952 19.9199 19.0451C19.6423 19.2553 19.4174 19.5273 19.2632 19.8395C19.1089 20.1517 19.0295 20.4956 19.0313 20.8438V20.8438C19.0313 21.0842 18.9358 21.3147 18.7658 21.4846C18.5959 21.6546 18.3654 21.7501 18.125 21.7501H10.875C10.6346 21.7501 10.4041 21.6546 10.2342 21.4846C10.0642 21.3147 9.96872 21.0842 9.96871 20.8438V20.8182C9.96636 20.4698 9.88291 20.1267 9.72496 19.8162C9.56701 19.5057 9.33891 19.2362 9.05874 19.0291V19.0291Z" stroke="white" stroke-width="2.5" stroke-linecap="round" stroke-linejoin="round"/>
</svg>
